# xmcd
#
# Track frame offsets:
#	150
#	20554
#	44305
#	56983
#	74620
#	90408
#	102863
#	119532
#	141025
#
# Disc length: 2056 seconds
#
# Revision: 1
# Processed by: cddbd v1.5.2PL0 Copyright (c) Steve Scherf et al.
# Submitted via: audiograbber 1.83.01
#
DISCID=7f080609
DTITLE=Johnny Winter - Johnny Winter
DYEAR=1969
DGENRE=Blues
TTITLE0=I'm Yours And I'm Hers
TTITLE1=Be Careful With A Fool
TTITLE2=Dallas
TTITLE3=Mean Mistreater
TTITLE4=Leland Mississippi Blues
TTITLE5=Good Morning Little School Girl
TTITLE6=When You Got A Good Friend
TTITLE7=I'll Drown In My Own Tears
TTITLE8=Back Door Friend
EXTD=
EXTT0=
EXTT1=
EXTT2=
EXTT3=
EXTT4=
EXTT5=
EXTT6=
EXTT7=
EXTT8=
PLAYORDER=
